<?xml version="1.0" encoding="UTF-8"?><svg id="Camada_2" xmlns="http://www.w3.org/2000/svg" viewBox="0 0 222.67 219.77"><defs><style>.cls-1{fill:#A5A5A5;}</style></defs><g id="Camada_1-2"><g><path class="cls-1" d="M105.64,211.69l3.95,.12-.12,3.87-3.95-.12,.12-3.87Z"/><path class="cls-1" d="M82.91,205.57c1.15-.66,2.55-.79,4.2-.37,1.65,.41,2.83,1.18,3.53,2.31,.7,1.12,.85,2.5,.44,4.13l-2.04,8.13-1.95-.49,2.04-8.15c.28-1.12,.21-2.03-.21-2.75s-1.17-1.2-2.24-1.47c-1.07-.27-1.96-.19-2.67,.24-.71,.43-1.2,1.2-1.48,2.32l-2.04,8.15-1.95-.49,2.04-8.13c.41-1.63,1.19-2.78,2.33-3.44Z"/><path class="cls-1" d="M74.41,201.37l1.87,.73-4.87,12.47-1.87-.73,4.87-12.47Z"/><path class="cls-1" d="M68.26,198.65l1.63,.82-10.31,9.79-1.63-.82,10.31-9.79Z"/><path class="cls-1" d="M51.35,189.65c1.31-.21,2.66,.17,4.06,1.14,1.4,.97,2.23,2.11,2.49,3.41,.26,1.3-.09,2.64-1.05,4.02l-4.78,6.89-1.65-1.15,4.79-6.9c.66-.95,.92-1.83,.77-2.65s-.67-1.54-1.57-2.17c-.91-.63-1.77-.87-2.58-.72-.81,.15-1.55,.7-2.21,1.65l-4.79,6.9-1.65-1.15,4.78-6.89c.96-1.38,2.09-2.18,3.4-2.39Z"/><path class="cls-1" d="M29.67,186.69l7.72-1.55,1.39-8.25,1.68,1.62-.53,3.07c-.2,1.2-.39,2.29-.57,3.27,1.48-.31,2.57-.54,3.25-.68l3.07-.61,1.62,1.57-8.19,1.6-1.3,7.84-1.68-1.62,.48-2.83c.07-.29,.15-.76,.25-1.43,.06-.28,.12-.61,.2-1,.07-.39,.11-.61,.12-.65-.23,.06-1.26,.28-3.1,.67l-2.81,.55-1.61-1.55Z"/><path class="cls-1" d="M25.87,165.47l2.2,3.28-3.21,2.16-2.2-3.28,3.21-2.16Z"/><path class="cls-1" d="M12.49,146.55c-.02-.82,.16-1.51,.54-2.08,.37-.57,.9-.99,1.57-1.26,1.09-.44,2.1-.42,3.01,.04,.91,.46,1.64,1.37,2.17,2.71l2.24,5.6-12.43,4.97-2.14-5.36c-.5-1.26-.59-2.34-.26-3.25,.33-.91,.97-1.55,1.94-1.94,1.21-.48,2.33-.3,3.36,.56Zm-3.38,4.1l1.35,3.37,3.72-1.49-1.35-3.37c-.58-1.45-1.52-1.92-2.81-1.41-.56,.22-.92,.59-1.08,1.09-.16,.5-.11,1.1,.17,1.8Zm10.56-.31l-1.45-3.63c-.31-.77-.71-1.29-1.21-1.56-.5-.27-1.06-.28-1.69-.03-1.33,.53-1.67,1.59-1.04,3.17l1.45,3.63,3.95-1.58Z"/><path class="cls-1" d="M10.83,127.73l2.01-.58c.66-.21,1.16-.47,1.5-.79l.44,2.02c-.3,.32-.83,.57-1.59,.75l-1.38,.36c-.84,.22-1.39,.54-1.66,.96-.27,.42-.33,1.01-.16,1.77l.84,3.8,5.38-1.18,.43,1.96-13.07,2.88-1.26-5.71c-.31-1.4-.23-2.56,.24-3.51,.47-.94,1.26-1.54,2.39-1.79,.8-.17,1.51-.13,2.14,.14,.63,.27,1.13,.72,1.51,1.37,.04-.68,.25-1.21,.62-1.6,.37-.39,.91-.68,1.63-.86Zm-1.64,8.66l-.83-3.78c-.17-.76-.49-1.31-.98-1.66-.49-.35-1.09-.44-1.81-.28-.7,.15-1.17,.49-1.43,1.02-.26,.53-.29,1.2-.11,2.04l.8,3.64,4.37-.96Z"/><path class="cls-1" d="M13.09,109.69l.11,2.12-3.4,1.5,.32,6.01,3.54,1.11,.11,2.08L.12,118l-.12-2.31,13.09-6Zm-5.5,8.84l.75,.24-.25-4.71-.72,.32c-1.62,.75-3.41,1.54-5.37,2.37,2.35,.74,4.21,1.33,5.59,1.78Z"/><path class="cls-1" d="M5.3,93.59l-4.03-.52,.25-1.92,13.28,1.71-.3,2.29-6.96,3.25c-2.02,.95-3.55,1.63-4.6,2.04,1.49,.14,3.71,.4,6.68,.79l4.03,.52-.25,1.94L.12,101.98l.3-2.29,6.96-3.27c1.9-.88,3.44-1.56,4.62-2.04-1.5-.14-3.73-.41-6.7-.79Z"/><path class="cls-1" d="M3.28,83.09l1.42-4.56c.61-1.97,1.67-3.35,3.16-4.14,1.48-.76,3.22-.83,5.2-.21,1.99,.62,3.38,1.66,4.17,3.13,.78,1.49,.87,3.22,.25,5.2l-1.42,4.56-12.78-3.98Zm11.69,1.53l.81-2.62c.44-1.4,.36-2.6-.22-3.6-.58-1-1.63-1.74-3.13-2.21-1.51-.47-2.79-.46-3.83,.04-1.05,.5-1.79,1.44-2.22,2.84l-.81,2.62,9.41,2.93Z"/><path class="cls-1" d="M22.57,69.3l-.84,1.83-12.16-5.59,.84-1.83,12.16,5.59Z"/><path class="cls-1" d="M22.06,51.27l-3.44-2.16,1.03-1.64,11.34,7.11-1.23,1.96-7.68,.05c-2.23,.02-3.91,0-5.04-.07,1.29,.75,3.21,1.92,5.74,3.51l3.44,2.16-1.04,1.66-11.34-7.11,1.23-1.96,7.69-.06c2.09,0,3.77,.02,5.05,.08-1.3-.76-3.22-1.93-5.76-3.52Z"/><path class="cls-1" d="M34.77,41.64l-1.27-1.15,3.91-4.32,5.21,4.72-1.04,1.14-1.56-.93c.36,1.68-.1,3.22-1.38,4.63-1.3,1.43-2.81,2.13-4.53,2.11-1.73,0-3.37-.69-4.92-2.1-1.57-1.42-2.43-2.99-2.57-4.72-.16-1.72,.41-3.31,1.74-4.77,1.1-1.22,2.33-1.94,3.69-2.16,1.36-.21,2.64,.09,3.84,.89l-1.39,1.53c-.79-.47-1.62-.61-2.49-.44s-1.63,.63-2.31,1.37c-.9,.99-1.27,2.1-1.1,3.32,.15,1.22,.82,2.36,2.01,3.44,1.19,1.08,2.4,1.63,3.62,1.66,1.24,.03,2.32-.46,3.22-1.45,.78-.86,1.17-1.84,1.17-2.92,0-1.07-.39-2-1.19-2.78l-2.65,2.93Z"/><path class="cls-1" d="M54.32,27.2l-3.23,2.27-2.23-3.17,3.23-2.27,2.23,3.17Z"/><path class="cls-1" d="M72.78,10.95l-1.57-3.75,1.79-.75,5.17,12.35-2.13,.89-6.3-4.39c-1.84-1.27-3.19-2.26-4.07-2.96,.62,1.36,1.51,3.42,2.67,6.18l1.57,3.75-1.8,.76-5.17-12.35,2.13-.89,6.32,4.38c1.71,1.2,3.07,2.19,4.08,2.98-.63-1.37-1.52-3.43-2.68-6.2Z"/><path class="cls-1" d="M90.07,1.81l.42,1.76-7.33,1.74,.87,3.68,6.64-1.58,.41,1.72-6.64,1.58,.98,4.12,7.28-1.73,.42,1.76-9.24,2.19-3.09-13.02,9.29-2.21Z"/><path class="cls-1" d="M100.52,13.91l-2,.23-1.53-13.3,2-.23,1.53,13.3Z"/><path class="cls-1" d="M108.57,0l.04,11.58,6.56-.02v1.8s-8.57,.03-8.57,.03L106.56,0h2.01Z"/><path class="cls-1" d="M118.43,.12l10.85,1.28-.21,1.79-4.41-.52-1.35,11.5-2.04-.24,1.35-11.5-4.41-.52,.21-1.79Z"/><path class="cls-1" d="M137.3,17.34c-1.91-.54-3.25-1.59-4.03-3.15-.81-1.56-.93-3.34-.36-5.36,.57-2,1.61-3.47,3.12-4.39,1.48-.91,3.18-1.1,5.08-.56,1.88,.53,3.23,1.58,4.04,3.13,.79,1.58,.9,3.37,.34,5.37-.57,2-1.6,3.46-3.09,4.38-1.51,.91-3.2,1.11-5.09,.57Zm.49-1.74c1.3,.37,2.47,.21,3.5-.48,1.02-.66,1.75-1.76,2.19-3.31s.4-2.87-.12-3.98c-.53-1.11-1.44-1.85-2.73-2.22-1.29-.36-2.45-.21-3.49,.46-1.04,.7-1.78,1.8-2.21,3.32-.43,1.53-.38,2.85,.15,3.97,.52,1.12,1.43,1.87,2.73,2.24Z"/><path class="cls-1" d="M160.81,16.4l1.78-3.65,1.74,.85-5.88,12.03-2.08-1.02-.85-7.64c-.26-2.22-.41-3.89-.46-5.02-.61,1.36-1.57,3.39-2.89,6.08l-1.78,3.65-1.76-.86,5.88-12.02,2.08,1.02,.87,7.64c.23,2.08,.38,3.75,.45,5.03,.62-1.37,1.58-3.41,2.9-6.1Z"/><path class="cls-1" d="M175.09,33.07l-3.09-2.46,2.41-3.03,3.09,2.46-2.41,3.03Z"/><path class="cls-1" d="M193.29,36.63l3.62,4.39c.93,1.12,1.35,2.23,1.28,3.33-.08,1.1-.62,2.07-1.62,2.9-1,.82-2.04,1.16-3.14,1.03-1.1-.14-2.11-.77-3.03-1.89l-2.34-2.84-3.81,3.15-1.28-1.55,10.33-8.52Zm-3.87,5.8l2.32,2.81c.53,.65,1.1,1.01,1.71,1.08s1.21-.14,1.82-.65,.94-1.06,.99-1.67c.05-.61-.19-1.24-.73-1.89l-2.32-2.81-3.79,3.12Z"/><path class="cls-1" d="M200.82,64.3l-1.74,1.17c-.56,.4-.96,.81-1.18,1.21l-1.04-1.79c.19-.4,.61-.8,1.28-1.2l1.21-.77c.73-.47,1.16-.95,1.29-1.43,.13-.48,0-1.06-.39-1.73l-1.96-3.36-4.76,2.78-1.02-1.74,11.56-6.76,2.95,5.05c.72,1.23,1,2.37,.85,3.41-.15,1.04-.73,1.85-1.72,2.43-.7,.41-1.4,.59-2.08,.53-.68-.06-1.3-.34-1.85-.84,.17,.66,.13,1.23-.1,1.71s-.66,.92-1.29,1.32Zm-1.1-8.74l1.95,3.34c.39,.67,.87,1.1,1.44,1.28,.57,.18,1.18,.09,1.81-.29,.62-.36,.97-.83,1.05-1.41,.08-.58-.09-1.24-.52-1.97l-1.88-3.21-3.86,2.26Z"/><path class="cls-1" d="M201.95,77.08c-.69-1.86-.63-3.56,.17-5.12,.78-1.57,2.15-2.72,4.11-3.45,1.95-.72,3.75-.75,5.39-.07,1.61,.66,2.76,1.92,3.45,3.77,.68,1.83,.63,3.54-.15,5.11-.81,1.57-2.19,2.72-4.14,3.44s-3.74,.75-5.36,.08c-1.63-.68-2.78-1.94-3.46-3.77Zm1.69-.63c.47,1.27,1.29,2.12,2.45,2.54,1.14,.43,2.46,.37,3.96-.19,1.5-.56,2.55-1.37,3.14-2.45,.59-1.09,.65-2.26,.18-3.52-.47-1.26-1.28-2.11-2.43-2.55-1.18-.43-2.5-.37-3.99,.18-1.49,.55-2.53,1.37-3.12,2.46-.6,1.08-.67,2.25-.2,3.52Z"/><path class="cls-1" d="M218.99,85.93l.84,4.7c.36,2.04,.06,3.74-.9,5.13-.97,1.36-2.48,2.22-4.52,2.58-2.05,.37-3.76,.08-5.14-.86-1.38-.96-2.25-2.46-2.62-4.5l-.84-4.7,13.18-2.35Zm-11.08,4.02l.48,2.7c.26,1.44,.88,2.48,1.85,3.1s2.24,.79,3.8,.52c1.55-.28,2.68-.88,3.38-1.8s.92-2.1,.67-3.55l-.48-2.7-9.7,1.73Z"/><path class="cls-1" d="M210.54,115.95c-1.17-.63-2.01-1.75-2.53-3.37-.52-1.62-.49-3.03,.1-4.22,.59-1.19,1.68-2.04,3.28-2.55l7.98-2.56,.61,1.92-8,2.57c-1.1,.35-1.84,.9-2.22,1.63-.38,.74-.41,1.63-.07,2.68s.88,1.76,1.61,2.14c.74,.38,1.66,.39,2.75,.03l8-2.57,.61,1.92-7.98,2.56c-1.6,.51-2.98,.46-4.15-.17Z"/><path class="cls-1" d="M206.44,128.23c.33-1.84,1.21-3.22,2.67-4.15,1.44-.94,3.22-1.22,5.33-.85,2.1,.37,3.67,1.24,4.71,2.61,1.04,1.37,1.4,2.98,1.07,4.83-.26,1.46-.87,2.64-1.83,3.55-.98,.91-2.26,1.37-3.86,1.4l.36-2c1.01-.08,1.81-.4,2.42-.97,.6-.57,.99-1.34,1.16-2.29,.23-1.27-.05-2.36-.84-3.28-.79-.92-1.97-1.51-3.55-1.8-1.58-.28-2.9-.13-3.95,.46-1.05,.59-1.69,1.52-1.92,2.79-.17,.95-.03,1.85,.42,2.71,.45,.83,1.22,1.42,2.3,1.77l-.35,1.98c-1.61-.45-2.77-1.31-3.47-2.58-.71-1.26-.92-2.65-.65-4.18Z"/><path class="cls-1" d="M217.47,141.72l-3.54,10.33-1.71-.59,1.44-4.2-10.95-3.76,.67-1.94,10.95,3.76,1.44-4.2,1.71,.59Z"/><path class="cls-1" d="M206.87,166.52l-2.6,4.01c-1.12,1.74-2.51,2.78-4.16,3.13-1.63,.33-3.32-.07-5.07-1.2-1.75-1.13-2.8-2.51-3.17-4.13-.35-1.65,.03-3.34,1.16-5.07l2.59-4.01,11.24,7.27Zm-10.85-4.63l-1.49,2.3c-.8,1.23-1.05,2.41-.76,3.53,.29,1.12,1.1,2.11,2.42,2.97,1.33,.86,2.56,1.19,3.7,1,1.14-.19,2.11-.91,2.91-2.14l1.49-2.3-8.27-5.35Z"/><path class="cls-1" d="M189.57,189.08l-1.34-1.21,5.06-5.59-2.8-2.54-4.58,5.06-1.31-1.19,4.58-5.06-3.14-2.84-5.02,5.55-1.34-1.21,6.37-7.04,9.92,8.98-6.41,7.08Z"/><path class="cls-1" d="M171.74,186.6c1.37-1.11,2.69-1.67,3.96-1.66,1.27,0,2.39,.6,3.37,1.79l-1.56,1.27c-1.29-1.53-2.87-1.55-4.73-.04-.77,.62-1.24,1.25-1.41,1.88-.17,.63-.03,1.23,.43,1.8,.37,.46,.83,.67,1.37,.64,.54-.03,1.33-.3,2.38-.83l1.04-.53c1.25-.65,2.34-.96,3.28-.91,.94,.04,1.76,.5,2.45,1.35,.69,.86,.92,1.81,.67,2.86-.25,1.05-.94,2.03-2.07,2.94-1.36,1.1-2.62,1.64-3.78,1.62-1.16-.03-2.16-.55-3.01-1.55l1.55-1.25c.59,.63,1.21,.95,1.87,.94,.65,0,1.41-.36,2.29-1.07,.68-.55,1.1-1.1,1.25-1.65,.16-.54,.04-1.05-.34-1.52-.39-.48-.84-.71-1.36-.69-.53,0-1.31,.25-2.33,.77l-1.06,.54c-1.39,.71-2.54,1.04-3.45,.98-.91-.06-1.69-.49-2.34-1.29-.78-.96-1.04-2.01-.77-3.15,.27-1.13,1.03-2.22,2.3-3.24Z"/><path class="cls-1" d="M161.68,194.07l1.7-1.07,7.11,11.34-1.7,1.07-7.11-11.34Z"/><path class="cls-1" d="M153.05,204.64l.71,1.56-5.3,2.41-2.91-6.4,1.4-.64,1.06,1.48c.34-1.68,1.37-2.92,3.11-3.71,1.76-.8,3.42-.85,4.99-.14,1.59,.68,2.82,1.97,3.69,3.88,.88,1.93,1.04,3.71,.49,5.35-.53,1.65-1.69,2.88-3.48,3.69-1.49,.68-2.91,.86-4.24,.53-1.33-.35-2.38-1.12-3.17-2.34l1.88-.86c.54,.74,1.25,1.21,2.11,1.39,.86,.19,1.75,.07,2.66-.34,1.22-.55,2-1.42,2.33-2.61,.35-1.18,.19-2.5-.48-3.96-.66-1.46-1.55-2.45-2.67-2.96-1.13-.52-2.31-.5-3.53,.05-1.06,.48-1.81,1.22-2.24,2.21-.43,.98-.44,1.99,0,3.02l3.59-1.63Z"/><path class="cls-1" d="M133.71,215.3l1,3.94-1.88,.48-3.29-12.98,2.24-.57,5.58,5.28c1.63,1.53,2.83,2.7,3.59,3.53-.42-1.43-.99-3.6-1.73-6.51l-1-3.94,1.9-.48,3.29,12.98-2.24,.57-5.6-5.27c-1.52-1.44-2.71-2.62-3.6-3.55,.42,1.45,1,3.62,1.73,6.52Z"/></g></g></svg>