<svg width="60" height="60" viewBox="0 0 60 60" fill="none" xmlns="http://www.w3.org/2000/svg">
<path fill-rule="evenodd" clip-rule="evenodd" d="M20.625 3.75C21.6605 3.75 22.5 4.58947 22.5 5.625V13.125C22.5 14.1605 21.6605 15 20.625 15C19.5895 15 18.75 14.1605 18.75 13.125V5.625C18.75 4.58947 19.5895 3.75 20.625 3.75Z" fill="#5b3fe3"/>
<path fill-rule="evenodd" clip-rule="evenodd" d="M28.125 3.75C29.1605 3.75 30 4.58947 30 5.625V13.125C30 14.1605 29.1605 15 28.125 15C27.0895 15 26.25 14.1605 26.25 13.125V5.625C26.25 4.58947 27.0895 3.75 28.125 3.75Z" fill="#5b3fe3"/>
<path fill-rule="evenodd" clip-rule="evenodd" d="M35.625 3.75C36.6605 3.75 37.5 4.58947 37.5 5.625V13.125C37.5 14.1605 36.6605 15 35.625 15C34.5895 15 33.75 14.1605 33.75 13.125V5.625C33.75 4.58947 34.5895 3.75 35.625 3.75Z" fill="#5b3fe3"/>
<path fill-rule="evenodd" clip-rule="evenodd" d="M5.625 50.625C5.625 49.5895 6.46447 48.75 7.5 48.75H48.75C49.7855 48.75 50.625 49.5895 50.625 50.625C50.625 51.6605 49.7855 52.5 48.75 52.5H7.5C6.46447 52.5 5.625 51.6605 5.625 50.625Z" fill="#5b3fe3"/>
<path fill-rule="evenodd" clip-rule="evenodd" d="M5.625 20.625C5.625 19.5895 6.46447 18.75 7.5 18.75H48.75C49.7855 18.75 50.625 19.5895 50.625 20.625V31.8746C50.625 31.8747 50.625 31.8745 50.625 31.8746C50.6258 36.1818 49.3904 40.399 47.0654 44.0247C44.7403 47.6506 41.4233 50.5328 37.5085 52.3292C36.5673 52.761 35.4543 52.3481 35.0224 51.407C34.5905 50.4658 35.0034 49.3527 35.9446 48.9208C39.207 47.4239 41.9711 45.022 43.9086 42.0005C45.8462 38.979 46.8757 35.4648 46.875 31.8754V22.5H9.375V31.875C9.37426 35.4644 10.4038 38.979 12.3414 42.0005C14.2789 45.022 17.0431 47.4239 20.3054 48.9208C21.2466 49.3527 21.6595 50.4658 21.2276 51.407C20.7957 52.3481 19.6827 52.761 18.7415 52.3292C14.8267 50.5328 11.5097 47.6506 9.18465 44.0247C6.85965 40.399 5.62419 36.1821 5.625 31.875C5.625 31.8749 5.625 31.8751 5.625 31.875V20.625Z" fill="#5b3fe3"/>
<path fill-rule="evenodd" clip-rule="evenodd" d="M46.875 20.625C46.875 19.5895 47.7145 18.75 48.75 18.75C51.2364 18.75 53.621 19.7377 55.3791 21.4959C57.1373 23.254 58.125 25.6386 58.125 28.125V30C58.125 32.4864 57.1373 34.871 55.3791 36.6291C53.621 38.3873 51.2364 39.375 48.75 39.375H47.9531C46.9176 39.375 46.0781 38.5355 46.0781 37.5C46.0781 36.4645 46.9176 35.625 47.9531 35.625H48.75C50.2418 35.625 51.6726 35.0324 52.7275 33.9775C53.7824 32.9226 54.375 31.4918 54.375 30V28.125C54.375 26.6332 53.7824 25.2024 52.7275 24.1475C51.6726 23.0926 50.2418 22.5 48.75 22.5C47.7145 22.5 46.875 21.6605 46.875 20.625Z" fill="#5b3fe3"/>
</svg>
